{
  "accessors": [
    {
      "bufferView": 2,
      "componentType": 5126,
      "count": 432,
      "max": [
        1.0,
        0.06954208016395569,
        1.434626817703247
      ],
      "min": [
        -1.0,
        -0.06954208016395569,
        -1.434626817703247
      ],
      "type": "VEC3"
    },
    {
      "bufferView": 2,
      "byteOffset": 5184,
      "componentType": 5126,
      "count": 432,
      "max": [
        0.9935498237609863,
        0.9995008111000061,
        0.9935470819473267
      ],
      "min": [
        -0.9935498237609863,
        -0.9995008707046509,
        -0.9935472011566162
      ],
      "type": "VEC3"
    },
    {
      "bufferView": 1,
      "componentType": 5126,
      "count": 432,
      "max": [
        0.0,
        0.0
      ],
      "min": [
        0.0,
        0.0
      ],
      "type": "VEC2"
    },
    {
      "bufferView": 0,
      "componentType": 5125,
      "count": 2592,
      "type": "SCALAR"
    },
    {
      "bufferView": 2,
      "byteOffset": 10368,
      "componentType": 5126,
      "count": 748,
      "max": [
        1.0118223428726196,
        97.6412582397461,
        1.0010625123977661
      ],
      "min": [
        -1.0118223428726196,
        -97.64131164550781,
        -249.0010986328125
      ],
      "type": "VEC3"
    },
    {
      "bufferView": 2,
      "byteOffset": 19344,
      "componentType": 5126,
      "count": 748,
      "max": [
        1.0,
        1.0,
        1.0
      ],
      "min": [
        -1.0,
        -1.0,
        -1.0
      ],
      "type": "VEC3"
    },
    {
      "bufferView": 1,
      "byteOffset": 3456,
      "componentType": 5126,
      "count": 748,
      "max": [
        1.0,
        1.0
      ],
      "min": [
        0.0,
        0.01000000536441803
      ],
      "type": "VEC2"
    },
    {
      "bufferView": 0,
      "byteOffset": 10368,
      "componentType": 5125,
      "count": 2046,
      "type": "SCALAR"
    },
    {
      "bufferView": 2,
      "byteOffset": 28320,
      "componentType": 5126,
      "count": 44732,
      "max": [
        9.982545852661133,
        5.338637828826904,
        244.10333251953125
      ],
      "min": [
        -9.98144245147705,
        -80.76138305664063,
        -9.978119850158691
      ],
      "type": "VEC3"
    },
    {
      "bufferView": 2,
      "byteOffset": 565104,
      "componentType": 5126,
      "count": 44732,
      "max": [
        0.9999927878379822,
        0.9999998807907104,
        0.9999431371688843
      ],
      "min": [
        -0.999970018863678,
        -1.0,
        -0.9999601244926453
      ],
      "type": "VEC3"
    },
    {
      "bufferView": 1,
      "byteOffset": 9440,
      "componentType": 5126,
      "count": 44732,
      "max": [
        0.0,
        0.0
      ],
      "min": [
        0.0,
        0.0
      ],
      "type": "VEC2"
    },
    {
      "bufferView": 0,
      "byteOffset": 18552,
      "componentType": 5125,
      "count": 241974,
      "type": "SCALAR"
    },
    {
      "bufferView": 2,
      "byteOffset": 1101888,
      "componentType": 5126,
      "count": 11917,
      "max": [
        9.96907901763916,
        -3.3429126739501953,
        244.09226989746094
      ],
      "min": [
        -9.973331451416016,
        -46.029354095458984,
        -9.974220275878906
      ],
      "type": "VEC3"
    },
    {
      "bufferView": 2,
      "byteOffset": 1244892,
      "componentType": 5126,
      "count": 11917,
      "max": [
        0.998528242111206,
        1.0,
        0.9998707175254822
      ],
      "min": [
        -0.9999629855155945,
        -0.9999989867210388,
        -0.9998430609703064
      ],
      "type": "VEC3"
    },
    {
      "bufferView": 1,
      "byteOffset": 367296,
      "componentType": 5126,
      "count": 11917,
      "max": [
        0.0,
        0.0
      ],
      "min": [
        0.0,
        0.0
      ],
      "type": "VEC2"
    },
    {
      "bufferView": 0,
      "byteOffset": 986448,
      "componentType": 5125,
      "count": 64728,
      "type": "SCALAR"
    }
  ],
  "asset": {
    "extras": {
      "author": "prostoi1997 (https://sketchfab.com/prostoi1997)",
      "license": "CC-BY-4.0 (http://creativecommons.org/licenses/by/4.0/)",
      "source": "https://sketchfab.com/3d-models/calculator-of-the-ussr-5f2808154e844425ac371657c2e4aa3b",
      "title": "calculator of the USSR"
    },
    "generator": "Sketchfab-15.27.0",
    "version": "2.0"
  },
  "bufferViews": [
    {
      "buffer": 0,
      "byteLength": 1245360,
      "name": "floatBufferViews",
      "target": 34963
    },
    {
      "buffer": 0,
      "byteLength": 462632,
      "byteOffset": 1245360,
      "byteStride": 8,
      "name": "floatBufferViews",
      "target": 34962
    },
    {
      "buffer": 0,
      "byteLength": 1387896,
      "byteOffset": 1707992,
      "byteStride": 12,
      "name": "floatBufferViews",
      "target": 34962
    }
  ],
  "buffers": [
    {
      "byteLength": 3095888,
      "uri": "scene.bin"
    }
  ],
  "materials": [
    {
      "doubleSided": true,
      "name": "Material.001",
      "pbrMetallicRoughness": {
        "baseColorFactor": [
          0.0452867,
          0.010654,
          0.0,
          1.0
        ],
        "metallicFactor": 0.0,
        "roughnessFactor": 0.5
      }
    },
    {
      "doubleSided": true,
      "name": "Material.002",
      "pbrMetallicRoughness": {
        "baseColorFactor": [
          0.0765794,
          0.0765794,
          0.0765794,
          1.0
        ],
        "metallicFactor": 0.929134,
        "roughnessFactor": 0.122047
      }
    },
    {
      "doubleSided": true,
      "name": "Material.003",
      "pbrMetallicRoughness": {
        "baseColorFactor": [
          0.658873,
          0.530363,
          0.230662,
          1.0
        ],
        "metallicFactor": 0.173228,
        "roughnessFactor": 0.405512
      }
    },
    {
      "doubleSided": true,
      "name": "Material.004",
      "pbrMetallicRoughness": {
        "baseColorFactor": [
          0.0,
          0.0,
          0.0,
          1.0
        ],
        "metallicFactor": 0.354331,
        "roughnessFactor": 0.350394
      }
    }
  ],
  "meshes": [
    {
      "name": "Object_0",
      "primitives": [
        {
          "attributes": {
            "NORMAL": 1,
            "POSITION": 0,
            "TEXCOORD_0": 2
          },
          "indices": 3,
          "material": 0,
          "mode": 4
        }
      ]
    },
    {
      "name": "Object_1",
      "primitives": [
        {
          "attributes": {
            "NORMAL": 5,
            "POSITION": 4,
            "TEXCOORD_0": 6
          },
          "indices": 7,
          "material": 1,
          "mode": 4
        }
      ]
    },
    {
      "name": "Object_2",
      "primitives": [
        {
          "attributes": {
            "NORMAL": 9,
            "POSITION": 8,
            "TEXCOORD_0": 10
          },
          "indices": 11,
          "material": 2,
          "mode": 4
        }
      ]
    },
    {
      "name": "Object_3",
      "primitives": [
        {
          "attributes": {
            "NORMAL": 13,
            "POSITION": 12,
            "TEXCOORD_0": 14
          },
          "indices": 15,
          "material": 3,
          "mode": 4
        }
      ]
    }
  ],
  "nodes": [
    {
      "children": [
        1
      ],
      "matrix": [
        1.0,
        0.0,
        0.0,
        0.0,
        0.0,
        2.220446049250313e-16,
        -1.0,
        0.0,
        0.0,
        1.0,
        2.220446049250313e-16,
        0.0,
        0.0,
        0.0,
        0.0,
        1.0
      ],
      "name": "Sketchfab_model"
    },
    {
      "children": [
        2
      ],
      "name": "root"
    },
    {
      "children": [
        3,
        5,
        7
      ],
      "matrix": [
        1.0,
        0.0,
        0.0,
        0.0,
        0.0,
        2.220446049250313e-16,
        1.0,
        0.0,
        0.0,
        -1.0,
        2.220446049250313e-16,
        0.0,
        0.0,
        0.0,
        0.0,
        1.0
      ],
      "name": "GLTF_SceneRootNode"
    },
    {
      "children": [
        4
      ],
      "matrix": [
        1.0,
        0.0,
        0.0,
        0.0,
        0.0,
        1.0,
        0.0,
        0.0,
        0.0,
        0.0,
        1.0,
        0.0,
        0.0,
        0.18515971302986145,
        0.0,
        1.0
      ],
      "name": "Plane_0"
    },
    {
      "mesh": 0,
      "name": "Object_4"
    },
    {
      "children": [
        6
      ],
      "matrix": [
        7.904041490427262e-10,
        -0.009376788511872259,
        0.0,
        0.0,
        0.009376788511872259,
        7.904041490427262e-10,
        0.0,
        0.0,
        0.0,
        0.0,
        0.009376788511872292,
        0.0,
        0.000397614436224103,
        0.18515971302986145,
        1.1617720127105713,
        1.0
      ],
      "name": "Cylinder_1"
    },
    {
      "mesh": 1,
      "name": "Object_6"
    },
    {
      "children": [
        8,
        9
      ],
      "matrix": [
        8.378668652495145e-10,
        -0.009939852170646156,
        -0.0,
        0.0,
        0.009939852170646156,
        8.378668652495145e-10,
        0.0,
        0.0,
        0.0,
        0.0,
        0.00993985217064619,
        0.0,
        0.8344833850860596,
        0.18515971302986145,
        -1.1654627323150635,
        1.0
      ],
      "name": "Circle.003_2"
    },
    {
      "mesh": 2,
      "name": "Object_8"
    },
    {
      "mesh": 3,
      "name": "Object_9"
    }
  ],
  "scene": 0,
  "scenes": [
    {
      "name": "Sketchfab_Scene",
      "nodes": [
        0
      ]
    }
  ]
}
