{
    "asset" : {
        "generator" : "Khronos glTF Blender I/O v3.4.50",
        "version" : "2.0"
    },
    "scene" : 0,
    "scenes" : [
        {
            "name" : "Scene",
            "nodes" : [
                7
            ]
        }
    ],
    "nodes" : [
        {
            "mesh" : 0,
            "name" : "Object_3",
            "translation" : [
                0,
                -3.546215157257393e-05,
                2.810884325299412e-06
            ]
        },
        {
            "mesh" : 1,
            "name" : "Object_4",
            "translation" : [
                0,
                -3.546215157257393e-05,
                2.810884325299412e-06
            ]
        },
        {
            "mesh" : 2,
            "name" : "Object_5",
            "translation" : [
                0,
                -3.546215157257393e-05,
                2.810884325299412e-06
            ]
        },
        {
            "mesh" : 3,
            "name" : "Object_6",
            "translation" : [
                0,
                -3.546215157257393e-05,
                2.810884325299412e-06
            ]
        },
        {
            "mesh" : 4,
            "name" : "Object_7",
            "translation" : [
                0,
                -3.546215157257393e-05,
                2.810884325299412e-06
            ]
        },
        {
            "children" : [
                0,
                1,
                2,
                3,
                4
            ],
            "name" : "Object_2",
            "translation" : [
                0,
                -3.546215157257393e-05,
                2.810884325299412e-06
            ]
        },
        {
            "children" : [
                5
            ],
            "name" : "RAFT LOD1.obj.cleaner.gles",
            "translation" : [
                -652.2220458984375,
                -163.1343994140625,
                -44.7439079284668
            ]
        },
        {
            "children" : [
                6
            ],
            "name" : "Sketchfab_model",
            "rotation" : [
                -0.70710688829422,
                0,
                0,
                0.7071066498756409
            ],
            "scale" : [
                0.020886801183223724,
                0.020886801183223724,
                0.020886801183223724
            ],
            "translation" : [
                0,
                -3.0409040451049805,
                3.2718589305877686
            ]
        }
    ],
    "materials" : [
        {
            "doubleSided" : true,
            "emissiveTexture" : {
                "index" : 0
            },
            "name" : "04___Default",
            "pbrMetallicRoughness" : {
                "baseColorTexture" : {
                    "index" : 1
                },
                "metallicFactor" : 0,
                "roughnessFactor" : 0.6000000238418579
            }
        },
        {
            "doubleSided" : true,
            "emissiveTexture" : {
                "index" : 2
            },
            "name" : "05___Default",
            "pbrMetallicRoughness" : {
                "baseColorTexture" : {
                    "index" : 3
                },
                "metallicFactor" : 0,
                "roughnessFactor" : 0.6000000238418579
            }
        },
        {
            "doubleSided" : true,
            "emissiveTexture" : {
                "index" : 4
            },
            "name" : "06___Default",
            "pbrMetallicRoughness" : {
                "baseColorTexture" : {
                    "index" : 5
                },
                "metallicFactor" : 0,
                "roughnessFactor" : 0.6000000238418579
            }
        },
        {
            "doubleSided" : true,
            "emissiveTexture" : {
                "index" : 6
            },
            "name" : "07___Default",
            "pbrMetallicRoughness" : {
                "baseColorTexture" : {
                    "index" : 7
                },
                "metallicFactor" : 0,
                "roughnessFactor" : 0.6000000238418579
            }
        }
    ],
    "meshes" : [
        {
            "name" : "Object_0",
            "primitives" : [
                {
                    "attributes" : {
                        "POSITION" : 0,
                        "TEXCOORD_0" : 1,
                        "NORMAL" : 2
                    },
                    "indices" : 3,
                    "material" : 0
                }
            ]
        },
        {
            "name" : "Object_1",
            "primitives" : [
                {
                    "attributes" : {
                        "POSITION" : 4,
                        "TEXCOORD_0" : 5,
                        "NORMAL" : 6
                    },
                    "indices" : 7,
                    "material" : 1
                }
            ]
        },
        {
            "name" : "Object_2",
            "primitives" : [
                {
                    "attributes" : {
                        "POSITION" : 8,
                        "TEXCOORD_0" : 9,
                        "NORMAL" : 10
                    },
                    "indices" : 11,
                    "material" : 2
                }
            ]
        },
        {
            "name" : "Object_3",
            "primitives" : [
                {
                    "attributes" : {
                        "POSITION" : 12,
                        "TEXCOORD_0" : 13,
                        "NORMAL" : 14
                    },
                    "indices" : 15,
                    "material" : 2
                }
            ]
        },
        {
            "name" : "Object_4",
            "primitives" : [
                {
                    "attributes" : {
                        "POSITION" : 16,
                        "TEXCOORD_0" : 17,
                        "NORMAL" : 18
                    },
                    "indices" : 19,
                    "material" : 3
                }
            ]
        }
    ],
    "textures" : [
        {
            "sampler" : 0,
            "source" : 0
        },
        {
            "sampler" : 0,
            "source" : 0
        },
        {
            "sampler" : 0,
            "source" : 1
        },
        {
            "sampler" : 0,
            "source" : 1
        },
        {
            "sampler" : 0,
            "source" : 2
        },
        {
            "sampler" : 0,
            "source" : 2
        },
        {
            "sampler" : 0,
            "source" : 3
        },
        {
            "sampler" : 0,
            "source" : 3
        }
    ],
    "images" : [
        {
            "mimeType" : "image/jpeg",
            "name" : "04___Default_baseColor",
            "uri" : "04___Default_baseColor.jpg"
        },
        {
            "mimeType" : "image/jpeg",
            "name" : "05___Default_baseColor",
            "uri" : "05___Default_baseColor.jpg"
        },
        {
            "mimeType" : "image/jpeg",
            "name" : "06___Default_baseColor",
            "uri" : "06___Default_baseColor.jpg"
        },
        {
            "mimeType" : "image/jpeg",
            "name" : "07___Default_baseColor",
            "uri" : "07___Default_baseColor.jpg"
        }
    ],
    "accessors" : [
        {
            "bufferView" : 0,
            "componentType" : 5126,
            "count" : 3692,
            "max" : [
                1100.1990966796875,
                614.5965576171875,
                351.16888427734375
            ],
            "min" : [
                168.82077026367188,
                12.083297729492188,
                45.30220031738281
            ],
            "type" : "VEC3"
        },
        {
            "bufferView" : 1,
            "componentType" : 5126,
            "count" : 3692,
            "type" : "VEC2"
        },
        {
            "bufferView" : 2,
            "componentType" : 5126,
            "count" : 3692,
            "type" : "VEC3"
        },
        {
            "bufferView" : 3,
            "componentType" : 5123,
            "count" : 7680,
            "type" : "SCALAR"
        },
        {
            "bufferView" : 4,
            "componentType" : 5126,
            "count" : 1284,
            "max" : [
                1097.1793212890625,
                619.0316162109375,
                366.10400390625
            ],
            "min" : [
                170.13189697265625,
                26.701492309570312,
                322.2774963378906
            ],
            "type" : "VEC3"
        },
        {
            "bufferView" : 5,
            "componentType" : 5126,
            "count" : 1284,
            "type" : "VEC2"
        },
        {
            "bufferView" : 6,
            "componentType" : 5126,
            "count" : 1284,
            "type" : "VEC3"
        },
        {
            "bufferView" : 7,
            "componentType" : 5123,
            "count" : 4224,
            "type" : "SCALAR"
        },
        {
            "bufferView" : 8,
            "componentType" : 5126,
            "count" : 122,
            "max" : [
                837.6822509765625,
                599.2877197265625,
                330.6347961425781
            ],
            "min" : [
                300.28717041015625,
                591.4346923828125,
                328.75018310546875
            ],
            "type" : "VEC3"
        },
        {
            "bufferView" : 9,
            "componentType" : 5126,
            "count" : 122,
            "type" : "VEC2"
        },
        {
            "bufferView" : 10,
            "componentType" : 5126,
            "count" : 122,
            "type" : "VEC3"
        },
        {
            "bufferView" : 11,
            "componentType" : 5123,
            "count" : 216,
            "type" : "SCALAR"
        },
        {
            "bufferView" : 12,
            "componentType" : 5126,
            "count" : 29223,
            "max" : [
                1002.48291015625,
                629.8133544921875,
                369.665283203125
            ],
            "min" : [
                258.174072265625,
                0,
                39.017398834228516
            ],
            "type" : "VEC3"
        },
        {
            "bufferView" : 13,
            "componentType" : 5126,
            "count" : 29223,
            "type" : "VEC2"
        },
        {
            "bufferView" : 14,
            "componentType" : 5126,
            "count" : 29223,
            "type" : "VEC3"
        },
        {
            "bufferView" : 15,
            "componentType" : 5123,
            "count" : 107928,
            "type" : "SCALAR"
        },
        {
            "bufferView" : 16,
            "componentType" : 5126,
            "count" : 2864,
            "max" : [
                397.39886474609375,
                385.2579040527344,
                576.328369140625
            ],
            "min" : [
                0,
                230.275390625,
                0
            ],
            "type" : "VEC3"
        },
        {
            "bufferView" : 17,
            "componentType" : 5126,
            "count" : 2864,
            "type" : "VEC2"
        },
        {
            "bufferView" : 18,
            "componentType" : 5126,
            "count" : 2864,
            "type" : "VEC3"
        },
        {
            "bufferView" : 19,
            "componentType" : 5123,
            "count" : 8772,
            "type" : "SCALAR"
        }
    ],
    "bufferViews" : [
        {
            "buffer" : 0,
            "byteLength" : 44304,
            "byteOffset" : 0,
            "target" : 34962
        },
        {
            "buffer" : 0,
            "byteLength" : 29536,
            "byteOffset" : 44304,
            "target" : 34962
        },
        {
            "buffer" : 0,
            "byteLength" : 44304,
            "byteOffset" : 73840,
            "target" : 34962
        },
        {
            "buffer" : 0,
            "byteLength" : 15360,
            "byteOffset" : 118144,
            "target" : 34963
        },
        {
            "buffer" : 0,
            "byteLength" : 15408,
            "byteOffset" : 133504,
            "target" : 34962
        },
        {
            "buffer" : 0,
            "byteLength" : 10272,
            "byteOffset" : 148912,
            "target" : 34962
        },
        {
            "buffer" : 0,
            "byteLength" : 15408,
            "byteOffset" : 159184,
            "target" : 34962
        },
        {
            "buffer" : 0,
            "byteLength" : 8448,
            "byteOffset" : 174592,
            "target" : 34963
        },
        {
            "buffer" : 0,
            "byteLength" : 1464,
            "byteOffset" : 183040,
            "target" : 34962
        },
        {
            "buffer" : 0,
            "byteLength" : 976,
            "byteOffset" : 184504,
            "target" : 34962
        },
        {
            "buffer" : 0,
            "byteLength" : 1464,
            "byteOffset" : 185480,
            "target" : 34962
        },
        {
            "buffer" : 0,
            "byteLength" : 432,
            "byteOffset" : 186944,
            "target" : 34963
        },
        {
            "buffer" : 0,
            "byteLength" : 350676,
            "byteOffset" : 187376,
            "target" : 34962
        },
        {
            "buffer" : 0,
            "byteLength" : 233784,
            "byteOffset" : 538052,
            "target" : 34962
        },
        {
            "buffer" : 0,
            "byteLength" : 350676,
            "byteOffset" : 771836,
            "target" : 34962
        },
        {
            "buffer" : 0,
            "byteLength" : 215856,
            "byteOffset" : 1122512,
            "target" : 34963
        },
        {
            "buffer" : 0,
            "byteLength" : 34368,
            "byteOffset" : 1338368,
            "target" : 34962
        },
        {
            "buffer" : 0,
            "byteLength" : 22912,
            "byteOffset" : 1372736,
            "target" : 34962
        },
        {
            "buffer" : 0,
            "byteLength" : 34368,
            "byteOffset" : 1395648,
            "target" : 34962
        },
        {
            "buffer" : 0,
            "byteLength" : 17544,
            "byteOffset" : 1430016,
            "target" : 34963
        }
    ],
    "samplers" : [
        {
            "magFilter" : 9729,
            "minFilter" : 9987
        }
    ],
    "buffers" : [
        {
            "byteLength" : 1447560,
            "uri" : "scene.bin"
        }
    ]
}
